<?xml version="1.0" standalone="no"?>
<!DOCTYPE svg PUBLIC "-//W3C//DTD SVG 20010904//EN"
 "http://www.w3.org/TR/2001/REC-SVG-20010904/DTD/svg10.dtd">
<svg version="1.0" xmlns="http://www.w3.org/2000/svg"
 width="1080.000000pt" height="1080.000000pt" viewBox="0 0 1080.000000 1080.000000"
 preserveAspectRatio="xMidYMid meet">
<metadata>
Created by potrace 1.14, written by Peter Selinger 2001-2017
</metadata>
<g transform="translate(0.000000,1080.000000) scale(0.100000,-0.100000)"
fill="#000000" stroke="none">
<path d="M5230 7800 c-208 -26 -408 -96 -590 -209 -59 -36 -189 -139 -249
-198 -62 -59 -91 -79 -75 -50 5 9 4 9 -5 1 -8 -7 -25 -9 -46 -4 -19 4 -36 5
-39 3 -3 -3 -31 -6 -63 -8 -54 -1 -130 -22 -120 -32 2 -2 -9 -18 -25 -35 -16
-17 -26 -33 -23 -36 2 -3 -2 -10 -10 -16 -9 -6 -17 -28 -19 -48 -5 -46 5 -51
109 -54 44 -1 83 -2 86 -3 4 0 -12 -35 -34 -78 -57 -109 -117 -277 -132 -370
-3 -21 -10 -67 -16 -103 -11 -73 -14 -269 -4 -345 22 -170 67 -320 141 -470
238 -483 725 -793 1254 -798 161 -1 237 6 368 38 407 99 754 375 941 750 49
98 104 247 116 314 3 19 8 37 10 41 2 3 7 33 10 65 4 33 9 63 12 67 5 10 4
250 -2 303 -15 142 -42 250 -100 400 -17 44 -23 71 -16 73 6 2 11 12 11 21 0
10 3 21 8 25 4 4 7 11 8 14 0 4 13 34 28 67 84 181 89 197 70 223 -11 16 -22
19 -47 15 -17 -2 -40 -5 -49 -5 -10 1 -18 -3 -18 -6 0 -4 -10 -9 -22 -9 -13
-1 -24 -7 -26 -13 -2 -5 -7 -8 -12 -5 -5 3 -16 -3 -26 -12 -10 -10 -19 -16
-20 -13 -1 3 -18 -9 -38 -26 l-35 -32 -28 37 c-58 76 -206 211 -305 278 -182
123 -387 205 -593 238 -65 10 -315 13 -385 5z"/>
<path d="M4844 4520 c-43 -19 -98 -75 -88 -91 4 -6 13 -4 23 5 10 9 35 24 56
35 35 17 42 17 96 3 47 -13 60 -14 73 -3 58 49 -70 89 -160 51z"/>
<path d="M5923 4523 c-23 -8 -58 -31 -78 -51 -32 -33 -34 -37 -16 -40 11 -2
29 6 40 17 34 34 61 37 157 16 22 -5 35 -2 48 11 17 16 17 18 -1 35 -24 24
-98 30 -150 12z"/>
<path d="M7380 4526 c-25 -11 -59 -44 -60 -59 0 -4 -9 -27 -19 -50 -68 -150
-88 -215 -90 -290 -2 -71 -1 -75 18 -70 25 6 40 23 44 49 1 10 7 25 11 33 7
11 6 12 -5 6 -12 -7 -12 -6 -1 7 8 10 9 19 3 22 -14 9 -3 40 68 200 34 77 61
145 59 151 -2 9 -9 10 -28 1z"/>
<path d="M3410 4513 c-11 -8 -20 -21 -20 -29 0 -11 25 -14 143 -14 78 0 152 3
164 6 19 5 40 42 25 46 -4 0 -71 2 -150 3 -107 1 -148 -2 -162 -12z"/>
<path d="M3935 4511 c-14 -16 -17 -38 -17 -122 1 -56 3 -103 5 -105 2 -2 54
-4 116 -5 115 -2 137 5 124 38 -6 15 -11 15 -105 16 l-68 0 -1 31 c-1 17 0 61
0 99 1 59 -1 67 -17 67 -11 0 -27 -9 -37 -19z"/>
<path d="M4199 4513 c-11 -12 -14 -65 -14 -240 -1 -220 -1 -223 20 -217 45 13
46 21 46 230 0 263 2 244 -20 244 -10 0 -25 -7 -32 -17z"/>
<path d="M4496 4511 c-16 -18 -18 -44 -18 -229 -1 -115 2 -214 6 -220 9 -14
43 -4 52 16 4 10 8 115 9 235 2 198 1 217 -15 217 -9 0 -25 -9 -34 -19z"/>
<path d="M5565 4516 c-19 -13 -20 -25 -20 -234 0 -121 4 -224 8 -228 4 -4 19
1 34 12 l26 19 -1 200 c0 110 -1 210 -1 223 -1 25 -18 28 -46 8z"/>
<path d="M6594 4512 c-16 -16 -18 -38 -4 -47 6 -3 10 -2 10 2 0 5 25 6 55 3
30 -3 55 -4 55 -1 0 8 109 5 117 -2 3 -3 15 -2 28 3 13 5 26 6 29 3 4 -4 26
38 26 50 0 2 -68 3 -151 3 -115 0 -155 -3 -165 -14z"/>
<path d="M7083 4523 c-15 -6 -17 -55 -4 -68 5 -6 31 -53 57 -105 26 -52 48
-97 50 -99 9 -11 42 33 39 52 -5 42 -17 77 -26 77 -5 0 -9 6 -9 13 0 6 -13 38
-29 69 -16 31 -26 59 -23 62 7 7 -38 6 -55 -1z"/>
<path d="M3524 4438 c-14 -19 -10 -366 3 -379 8 -8 18 -5 35 12 23 23 23 28
22 194 -1 94 -2 173 -3 178 -2 12 -48 8 -57 -5z"/>
<path d="M6707 4444 c-3 -3 -3 -12 0 -20 3 -8 0 -14 -7 -14 -6 0 -9 -4 -6 -9
9 -14 14 -111 6 -106 -4 3 -4 -11 0 -29 5 -22 3 -39 -3 -45 -6 -6 -7 -11 -1
-11 5 0 8 -26 7 -57 -3 -80 3 -104 25 -96 38 15 41 33 42 216 l0 177 -28 0
c-16 0 -31 -3 -35 -6z"/>
<path d="M4788 4414 c-29 -15 -35 -42 -22 -91 7 -24 72 -61 120 -67 47 -6 82
-27 92 -55 11 -35 6 -78 -13 -108 -21 -32 -11 -42 22 -23 33 19 63 75 63 118
0 72 -41 112 -137 132 -62 14 -80 28 -86 69 -7 42 -7 42 -39 25z"/>
<path d="M5839 4400 c-23 -30 -15 -80 19 -107 15 -12 52 -27 82 -33 68 -13 82
-20 98 -51 16 -30 8 -104 -12 -125 -25 -24 -19 -35 12 -21 50 22 74 67 73 137
0 39 -5 49 -35 75 -20 18 -57 36 -88 44 -75 19 -98 35 -98 71 0 36 -26 41 -51
10z"/>
<path d="M3924 4249 c-8 -13 -7 -175 1 -188 8 -13 44 -1 54 18 13 23 10 164
-3 173 -16 11 -44 9 -52 -3z"/>
<path d="M4772 4124 c-45 -50 71 -103 138 -63 41 25 41 53 0 44 -22 -5 -42 -1
-71 14 -47 25 -50 25 -67 5z"/>
<path d="M5836 4121 c-17 -19 -17 -21 1 -39 10 -10 26 -23 36 -29 27 -14 105
0 122 23 23 30 18 37 -20 30 -27 -5 -44 -2 -69 13 -41 26 -48 26 -70 2z"/>
</g>
</svg>
